<svg width="49" height="13" viewBox="0 0 49 13" fill="none" xmlns="http://www.w3.org/2000/svg">
<path d="M1.2915 6.38184V10H0.0727539V0.757812H3.48145C4.49284 0.757812 5.28418 1.01595 5.85547 1.53223C6.43099 2.0485 6.71875 2.73193 6.71875 3.58252C6.71875 4.47965 6.43734 5.17155 5.87451 5.6582C5.31592 6.14062 4.514 6.38184 3.46875 6.38184H1.2915ZM1.2915 5.38525H3.48145C4.13314 5.38525 4.63249 5.23291 4.97949 4.92822C5.3265 4.6193 5.5 4.17497 5.5 3.59521C5.5 3.04508 5.3265 2.60498 4.97949 2.2749C4.63249 1.94482 4.15641 1.77344 3.55127 1.76074H1.2915V5.38525ZM10.4385 8.27979L12.0381 3.13184H13.2949L10.5337 11.0601C10.1063 12.2026 9.42708 12.7739 8.49609 12.7739L8.27393 12.7549L7.83594 12.6724V11.7202L8.15332 11.7456C8.55111 11.7456 8.86003 11.6652 9.08008 11.5044C9.30436 11.3436 9.48844 11.0495 9.63232 10.6221L9.89258 9.92383L7.44238 3.13184H8.72461L10.4385 8.27979ZM17.0146 9.16846C17.4336 9.16846 17.7996 9.0415 18.1128 8.7876C18.4259 8.53369 18.5994 8.21631 18.6333 7.83545H19.7441C19.723 8.229 19.5876 8.60352 19.3379 8.95898C19.0882 9.31445 18.7539 9.59798 18.335 9.80957C17.9202 10.0212 17.4801 10.127 17.0146 10.127C16.0794 10.127 15.3346 9.81592 14.7803 9.19385C14.2301 8.56755 13.9551 7.71273 13.9551 6.62939V6.43262C13.9551 5.764 14.0778 5.16943 14.3232 4.64893C14.5687 4.12842 14.9199 3.72428 15.377 3.43652C15.8382 3.14876 16.382 3.00488 17.0083 3.00488C17.7785 3.00488 18.4175 3.23551 18.9253 3.69678C19.4373 4.15804 19.7103 4.75684 19.7441 5.49316H18.6333C18.5994 5.04883 18.4302 4.6849 18.1255 4.40137C17.825 4.11361 17.4526 3.96973 17.0083 3.96973C16.4116 3.96973 15.9482 4.18555 15.6182 4.61719C15.2923 5.0446 15.1294 5.66455 15.1294 6.47705V6.69922C15.1294 7.49056 15.2923 8.09993 15.6182 8.52734C15.944 8.95475 16.4095 9.16846 17.0146 9.16846ZM23.8193 9.16846C24.2383 9.16846 24.6043 9.0415 24.9175 8.7876C25.2306 8.53369 25.4041 8.21631 25.438 7.83545H26.5488C26.5277 8.229 26.3923 8.60352 26.1426 8.95898C25.8929 9.31445 25.5586 9.59798 25.1396 9.80957C24.7249 10.0212 24.2848 10.127 23.8193 10.127C22.8841 10.127 22.1393 9.81592 21.585 9.19385C21.0348 8.56755 20.7598 7.71273 20.7598 6.62939V6.43262C20.7598 5.764 20.8825 5.16943 21.1279 4.64893C21.3734 4.12842 21.7246 3.72428 22.1816 3.43652C22.6429 3.14876 23.1867 3.00488 23.813 3.00488C24.5832 3.00488 25.2222 3.23551 25.73 3.69678C26.242 4.15804 26.515 4.75684 26.5488 5.49316H25.438C25.4041 5.04883 25.2349 4.6849 24.9302 4.40137C24.6297 4.11361 24.2573 3.96973 23.813 3.96973C23.2163 3.96973 22.7529 4.18555 22.4229 4.61719C22.097 5.0446 21.9341 5.66455 21.9341 6.47705V6.69922C21.9341 7.49056 22.097 8.09993 22.4229 8.52734C22.7487 8.95475 23.2142 9.16846 23.8193 9.16846ZM30.0083 7.07373H29.1514V10H27.9707V3.13184H29.1514V6.03906H29.9194L32.23 3.13184H33.6519L30.9351 6.43262L33.8804 10H32.3887L30.0083 7.07373ZM39.333 3.13184H40.5073V10H39.333V4.9917L36.1655 10H34.9912V3.13184H36.1655V8.14648L39.333 3.13184ZM46.8359 3.13184H48.0103V10H46.8359V4.9917L43.6685 10H42.4941V3.13184H43.6685V8.14648L46.8359 3.13184ZM47.1533 0.630859C47.1533 1.1429 46.9777 1.5555 46.6265 1.86865C46.2795 2.17757 45.8224 2.33203 45.2554 2.33203C44.6883 2.33203 44.2292 2.17546 43.8779 1.8623C43.5267 1.54915 43.3511 1.13867 43.3511 0.630859H44.3096C44.3096 0.927083 44.39 1.15983 44.5508 1.3291C44.7116 1.49414 44.9465 1.57666 45.2554 1.57666C45.5516 1.57666 45.7822 1.49414 45.9473 1.3291C46.1165 1.16406 46.2012 0.931315 46.2012 0.630859H47.1533Z" fill="white"/>
</svg>
